<?xml version="1.0" standalone="no"?>
<!DOCTYPE svg PUBLIC "-//W3C//DTD SVG 20010904//EN"
 "http://www.w3.org/TR/2001/REC-SVG-20010904/DTD/svg10.dtd">
<svg version="1.0" xmlns="http://www.w3.org/2000/svg"
 width="168.000000pt" height="168.000000pt" viewBox="0 0 168.000000 168.000000"
 preserveAspectRatio="xMidYMid meet">
<metadata>
Created by potrace 1.11, written by Peter Selinger 2001-2013
</metadata>
<g transform="translate(0.000000,168.000000) scale(0.100000,-0.100000)"
fill="#000000" stroke="none">
<path d="M755 1661 c5 -12 3 -12 -12 0 -11 9 -14 10 -9 2 4 -8 2 -13 -5 -13
-6 0 -18 -8 -25 -17 -13 -17 -14 -17 -8 2 6 18 5 18 -16 -3 -12 -13 -28 -21
-36 -18 -9 3 -11 0 -7 -11 4 -11 2 -14 -5 -9 -7 4 -12 3 -12 -3 0 -5 -9 -8
-19 -6 -14 3 -18 -1 -14 -11 3 -8 2 -14 -3 -13 -21 4 -35 -2 -28 -12 5 -8 1
-8 -14 0 -18 10 -20 9 -17 -9 3 -17 0 -20 -17 -14 -14 4 -18 2 -14 -5 4 -6 2
-12 -3 -12 -6 -1 -17 -2 -23 -3 -7 -1 -12 -8 -10 -15 1 -7 -2 -10 -8 -6 -5 3
-16 3 -22 -2 -7 -4 -17 -8 -23 -8 -5 0 -10 -5 -10 -12 0 -6 -4 -15 -9 -20 -5
-5 -6 -3 -2 5 4 6 3 12 -2 12 -6 0 -13 -7 -16 -16 -5 -13 -9 -14 -22 -3 -8 7
-14 8 -13 3 4 -23 -2 -36 -15 -31 -8 3 -17 -1 -20 -9 -3 -8 -13 -14 -21 -14
-9 0 -13 -4 -10 -10 4 -6 -1 -7 -11 -3 -13 5 -15 3 -9 -7 5 -9 4 -11 -4 -6
-12 8 -61 -36 -61 -55 0 -6 -5 -7 -10 -4 -6 3 -14 -5 -20 -19 -5 -14 -12 -26
-15 -26 -4 0 -3 5 1 12 4 7 3 8 -5 4 -9 -6 -9 -11 0 -22 9 -11 8 -15 -4 -20
-9 -3 -13 -12 -10 -20 3 -10 0 -12 -10 -8 -13 5 -15 -37 -16 -337 -1 -259 2
-346 12 -357 8 -11 9 -14 0 -9 -8 5 -11 1 -10 -12 1 -15 4 -17 14 -9 10 8 12
7 7 -6 -4 -10 -1 -16 7 -16 11 0 11 -2 -1 -10 -12 -8 -12 -10 3 -16 9 -3 14
-10 11 -15 -3 -5 0 -9 5 -9 6 0 11 -7 11 -15 0 -9 7 -18 15 -21 8 -4 12 -10 9
-15 -3 -5 2 -9 11 -9 10 0 13 -5 9 -12 -5 -8 -2 -8 10 1 9 8 16 10 15 5 -5
-20 13 -43 28 -37 11 4 14 2 9 -5 -4 -7 -1 -12 8 -12 9 0 16 -4 16 -10 0 -5 5
-10 11 -10 5 0 7 6 4 12 -4 7 2 3 12 -9 10 -12 27 -23 38 -25 11 -2 28 -11 37
-21 9 -10 20 -17 23 -16 13 4 44 -25 38 -35 -4 -6 0 -6 8 1 12 10 18 9 29 -7
10 -15 17 -17 27 -8 11 9 12 7 7 -8 -4 -10 -4 -16 1 -12 4 4 16 -2 26 -13 21
-24 29 -25 40 -7 6 9 9 7 9 -8 0 -12 7 -25 16 -28 8 -3 12 -2 9 4 -3 6 1 7 9
4 9 -3 13 -10 10 -15 -3 -5 0 -9 5 -9 19 0 26 -3 41 -20 12 -13 13 -13 5 0 -7
11 -5 11 11 -3 11 -9 28 -17 37 -17 20 0 23 -16 5 -23 -7 -2 38 -5 99 -5 71 0
115 3 119 10 4 7 2 8 -4 4 -7 -4 -12 -5 -12 -2 0 3 9 10 20 16 16 9 19 8 14
-7 -5 -17 -5 -17 9 -1 8 10 18 14 22 10 5 -4 5 2 1 12 -5 15 -4 17 8 7 11 -9
15 -8 20 5 3 9 13 14 21 10 8 -3 17 0 21 6 5 7 2 8 -7 3 -10 -6 -11 -5 -3 4 6
7 20 13 32 14 11 0 19 4 17 7 -1 3 3 10 10 17 11 10 15 10 18 0 4 -9 6 -9 6 1
1 7 6 10 11 7 9 -6 14 7 11 27 0 4 6 5 15 1 9 -3 21 3 31 16 8 12 21 20 28 17
7 -2 16 2 19 10 3 8 15 14 26 14 11 0 23 7 26 15 5 12 9 13 20 4 12 -10 13 -8
8 6 -5 13 -4 16 4 11 7 -4 12 -3 12 3 0 6 7 7 17 4 9 -4 14 -2 11 3 -3 5 6 18
21 29 26 19 26 19 11 0 -10 -14 -4 -12 21 7 20 15 40 24 43 20 4 -3 4 2 0 12
-5 14 -4 17 4 12 7 -4 12 -3 12 3 0 6 7 8 15 5 11 -4 13 -2 10 9 -4 8 1 17 10
21 10 4 15 12 11 22 -3 8 -2 12 3 9 10 -5 24 11 27 30 0 6 2 16 2 23 1 7 6 11
11 7 11 -6 7 28 -5 47 -4 6 -3 8 2 5 12 -7 13 642 1 661 -5 7 -3 12 4 12 9 0
9 4 -1 15 -6 8 -9 19 -5 25 3 5 -1 13 -9 16 -9 3 -13 10 -10 15 3 5 0 9 -5 9
-6 0 -11 10 -11 21 0 19 -2 20 -17 8 -10 -7 -15 -10 -11 -5 11 13 -11 46 -38
56 -13 5 -24 17 -24 25 0 9 -5 13 -11 10 -6 -4 -17 1 -25 11 -9 11 -13 13 -9
7 4 -8 0 -13 -10 -13 -9 0 -13 5 -10 10 3 6 1 10 -5 10 -6 0 -9 4 -6 9 4 5 -2
7 -13 4 -12 -3 -24 3 -33 16 -8 12 -18 18 -21 14 -4 -3 -7 -1 -7 6 0 7 -4 10
-9 6 -6 -3 -14 3 -20 12 -8 14 -11 15 -11 3 0 -9 -6 -5 -15 10 -8 14 -14 19
-15 11 0 -9 -5 -7 -17 6 -10 10 -16 14 -13 8 3 -6 -2 -4 -10 5 -8 8 -24 14
-35 12 -16 -2 -17 -1 -5 7 13 10 13 11 0 12 -8 1 -18 1 -22 0 -5 0 -8 6 -8 15
0 8 -4 12 -10 9 -5 -3 -10 -1 -10 6 0 8 -5 8 -17 -2 -10 -7 -15 -9 -11 -5 11
13 -11 36 -33 36 -10 0 -21 9 -24 21 -5 16 -10 18 -21 8 -10 -8 -14 -8 -14 0
0 6 -7 11 -16 11 -8 0 -12 5 -9 10 3 6 1 10 -4 10 -6 0 -11 -5 -11 -11 0 -5
-5 -7 -10 -4 -6 4 -8 10 -6 14 7 10 -116 8 -133 -3 -9 -6 -12 -5 -8 1 4 7 -3
10 -18 9 -17 -1 -23 -5 -20 -15z m102 -284 c-4 -10 2 -13 20 -9 20 4 24 2 18
-9 -7 -11 -5 -11 10 1 11 9 16 10 11 3 -5 -9 0 -13 13 -13 12 0 21 -5 21 -11
0 -5 5 -7 10 -4 6 3 10 -1 10 -9 0 -9 7 -13 20 -11 11 2 20 -1 20 -7 0 -5 7
-7 16 -4 8 3 13 2 10 -3 -8 -12 21 -34 34 -26 6 4 9 1 8 -7 -2 -7 3 -12 10
-11 6 2 12 -3 12 -11 0 -8 5 -18 12 -22 7 -5 8 -2 3 7 -4 8 11 -6 33 -31 23
-25 42 -51 42 -59 0 -8 3 -11 7 -8 4 4 13 -7 20 -24 8 -20 17 -28 25 -23 8 5
7 0 -2 -11 -8 -10 -10 -16 -4 -12 7 4 18 -1 25 -10 12 -14 12 -16 -1 -8 -8 5
-2 -9 15 -31 16 -21 21 -33 12 -25 -22 17 -22 8 -1 -14 9 -9 17 -27 17 -40 0
-14 3 -22 8 -19 5 3 6 -2 3 -10 -4 -9 -1 -16 6 -16 9 0 9 -4 -1 -17 -10 -11
-10 -14 -1 -9 6 4 12 2 12 -3 0 -6 -5 -11 -11 -11 -5 0 -7 -5 -4 -10 5 -8 11
-8 19 -1 9 8 13 7 13 -4 0 -8 -4 -12 -9 -9 -4 3 -8 -1 -9 -8 0 -7 -2 -23 -3
-36 -2 -13 2 -26 7 -29 6 -3 7 -1 3 5 -4 7 -2 12 3 12 12 0 14 -13 4 -24 -11
-11 -12 -36 -2 -36 6 0 7 -5 4 -10 -4 -6 -12 -7 -18 -4 -8 5 -8 3 1 -7 13 -14
17 -33 4 -25 -4 2 -8 -5 -9 -17 0 -12 1 -16 4 -9 3 6 10 12 16 12 7 -1 2 -9
-11 -19 -15 -14 -18 -21 -10 -25 10 -4 10 -8 2 -11 -7 -3 -10 -16 -7 -28 4
-18 3 -19 -6 -7 -10 13 -15 8 -12 -12 0 -5 -3 -8 -8 -8 -6 0 -22 -11 -37 -25
-15 -14 -33 -24 -41 -21 -7 3 -15 0 -19 -6 -4 -7 -3 -8 4 -4 7 4 12 4 12 1 0
-3 -13 -11 -30 -16 -16 -6 -30 -15 -30 -20 0 -5 -5 -9 -11 -9 -5 0 -7 6 -4 13
4 6 0 4 -8 -5 -8 -10 -24 -18 -37 -18 -14 0 -20 -5 -17 -12 3 -8 -4 -13 -18
-13 -14 0 -21 4 -17 10 4 6 -1 2 -10 -8 -13 -13 -18 -15 -18 -6 0 10 -3 10 -8
3 -4 -6 -17 -10 -29 -9 -15 1 -23 -4 -24 -14 -1 -9 -5 -5 -9 9 -5 17 -8 19 -9
8 -1 -21 -12 -23 -30 -6 -11 11 -12 8 -6 -12 4 -17 3 -21 -3 -11 -5 7 -15 10
-22 6 -6 -4 -18 1 -26 11 -9 11 -13 14 -10 7 4 -6 2 -14 -4 -18 -5 -3 -10 -1
-10 6 0 7 -3 9 -7 6 -3 -4 -13 -1 -21 6 -10 8 -13 8 -9 1 4 -7 0 -14 -8 -18
-8 -3 -17 0 -21 6 -5 7 -2 8 6 3 8 -5 11 -4 7 3 -4 5 -16 8 -27 5 -13 -3 -20
0 -20 8 0 11 -2 11 -10 -1 -9 -13 -10 -13 -10 0 0 13 -1 13 -10 0 -6 -10 -10
-11 -10 -2 0 6 -11 12 -25 12 -14 0 -25 5 -25 10 0 6 -12 10 -26 10 -17 0 -23
4 -18 13 5 7 0 6 -11 -3 -10 -8 -16 -10 -13 -5 3 6 0 16 -8 23 -11 10 -14 10
-15 0 0 -10 -2 -10 -6 0 -2 6 -9 10 -14 6 -5 -3 -9 2 -9 10 0 10 -9 16 -26 16
-14 0 -23 4 -20 8 2 4 1 14 -5 22 -7 13 -9 13 -9 1 0 -10 -8 -7 -25 9 -14 13
-25 29 -25 36 0 8 -7 11 -17 7 -15 -5 -16 -3 -5 8 17 18 15 29 -5 30 -15 0
-15 2 2 9 11 5 14 9 8 9 -7 1 -12 4 -12 9 1 4 0 9 -1 12 -9 23 -4 50 9 51 14
0 14 1 1 7 -21 10 -21 85 -1 77 10 -4 8 2 -5 16 -10 12 -14 19 -7 16 6 -4 14
-3 18 3 3 5 2 10 -3 10 -5 0 -9 7 -9 15 0 8 4 12 8 9 5 -2 7 11 5 30 -1 19 1
33 5 30 4 -2 10 0 14 6 3 5 1 10 -5 10 -6 0 -8 5 -5 10 4 6 10 8 15 5 10 -6 8
15 -3 32 -6 9 -3 11 9 6 12 -4 15 -3 10 5 -4 7 -2 12 3 12 6 0 11 5 11 11 0 5
-6 7 -12 4 -7 -4 -5 0 4 8 10 8 15 17 11 20 -3 4 0 7 7 7 7 0 10 3 7 7 -4 3 2
12 13 20 11 8 20 20 20 26 0 7 -4 6 -10 -3 -5 -8 -10 -10 -10 -4 0 7 11 19 25
28 14 9 24 21 22 27 -1 7 4 14 12 17 9 3 11 0 6 -8 -5 -8 -4 -11 3 -7 5 4 8
16 5 27 -3 12 0 20 6 20 7 0 9 5 5 11 -5 8 -1 8 14 0 17 -9 19 -8 15 10 -3 11
-2 19 3 18 21 -4 28 2 14 12 -12 9 -12 10 4 5 21 -7 49 11 39 27 -3 6 -1 7 5
3 7 -4 12 -2 12 5 0 6 8 9 19 6 15 -3 18 -1 14 11 -4 10 -2 13 5 8 6 -3 21 4
33 16 12 13 19 17 15 11 -10 -18 23 -4 46 19 9 9 24 15 32 12 8 -3 17 -1 21 5
9 16 18 14 12 -2z"/>
<path d="M800 1360 c-9 -6 -10 -10 -3 -10 6 0 15 5 18 10 8 12 4 12 -15 0z"/>
<path d="M877 1141 c5 -13 3 -13 -7 -4 -10 9 -17 9 -33 0 -29 -17 -57 -45 -57
-58 0 -5 -4 -8 -9 -5 -5 3 -12 -1 -15 -10 -4 -10 -2 -13 6 -8 7 5 8 3 2 -7
-14 -23 -15 -51 -2 -44 7 4 4 -1 -6 -9 -11 -9 -29 -16 -39 -16 -15 0 -17 -3
-8 -14 8 -10 8 -16 -2 -25 -17 -14 -14 -56 6 -75 11 -11 17 -12 27 -3 10 9 11
9 6 0 -4 -7 -2 -13 4 -13 6 0 8 -5 5 -10 -4 -6 -1 -18 7 -27 7 -9 8 -14 2 -10
-7 4 -14 0 -18 -8 -3 -8 -2 -17 3 -19 4 -3 6 -29 5 -58 -3 -39 -1 -49 7 -38 9
13 10 13 6 0 -2 -8 -13 -14 -23 -13 -18 1 -18 1 -2 -11 14 -10 15 -15 5 -26
-9 -9 -9 -11 0 -6 6 3 14 2 18 -4 3 -5 -1 -10 -9 -10 -18 0 -21 -16 -6 -25 6
-3 10 -18 10 -33 0 -15 4 -22 8 -17 9 13 46 20 38 7 -3 -5 1 -9 9 -9 8 0 15 5
15 10 0 5 8 3 17 -4 11 -10 14 -10 9 -2 -4 7 -3 13 3 13 5 0 12 -6 14 -12 4
-10 6 -10 6 0 1 6 8 12 17 12 8 0 12 5 9 10 -3 6 -1 10 6 10 8 0 8 4 -1 15
-12 14 -7 19 13 16 5 -1 6 3 2 9 -3 6 -10 8 -15 5 -5 -3 -11 -1 -15 5 -3 5 -1
10 4 10 15 0 14 93 -1 109 -8 8 -8 11 -2 8 7 -4 14 3 16 18 3 13 2 22 -3 19
-14 -8 -4 51 11 64 13 12 12 13 -5 7 -16 -5 -18 -4 -7 6 9 10 15 10 24 1 7 -7
19 -12 27 -12 14 0 14 1 1 10 -9 6 -10 10 -3 10 6 0 15 -5 18 -10 5 -8 11 -8
19 -1 16 14 21 95 5 85 -8 -4 -8 0 0 15 10 18 9 20 -5 14 -11 -4 -15 -2 -11 4
3 5 0 10 -8 10 -8 0 -12 -3 -10 -7 2 -4 -9 -7 -24 -8 -23 0 -30 4 -34 24 -3
20 -2 22 10 13 11 -10 12 -8 7 6 -5 12 -4 16 3 12 6 -4 14 0 17 9 5 13 9 14
21 4 8 -7 12 -17 9 -24 -3 -6 2 -2 11 9 9 11 21 19 26 17 6 -1 6 4 1 15 -5 10
-8 23 -5 28 2 6 -6 21 -18 34 l-22 23 24 -6 c18 -5 20 -5 8 3 -16 11 -37 10
-56 -2 -9 -5 -13 -2 -13 8 0 9 -5 13 -10 10 -6 -4 -8 -10 -6 -14 3 -4 -2 -8
-10 -8 -8 0 -13 6 -10 12 2 6 -2 12 -9 12 -8 0 -11 -7 -8 -16z"/>
<path d="M1226 172 c-3 -5 1 -9 9 -9 8 0 12 4 9 9 -3 4 -7 8 -9 8 -2 0 -6 -4
-9 -8z"/>
</g>
</svg>
